<svg xmlns="http://www.w3.org/2000/svg" version="1.1" xmlns:xlink="http://www.w3.org/1999/xlink" xmlns:svgjs="http://svgjs.dev/svgjs" width="1440" height="560" preserveAspectRatio="none" viewBox="0 0 1440 560"><g mask="url(&quot;#SvgjsMask1841&quot;)" fill="none"><rect width="1440" height="560" x="0" y="0" fill="url(&quot;#SvgjsLinearGradient1842&quot;)"></rect><use xlink:href="#SvgjsSymbol1849" x="0" y="0"></use><use xlink:href="#SvgjsSymbol1849" x="720" y="0"></use></g><defs><mask id="SvgjsMask1841"><rect width="1440" height="560" fill="#ffffff"></rect></mask><linearGradient x1="50%" y1="100%" x2="50%" y2="0%" gradientUnits="userSpaceOnUse" id="SvgjsLinearGradient1842"><stop stop-color="#0e2a47" offset="0"></stop><stop stop-color="rgba(27, 27, 27, 1)" offset="1"></stop></linearGradient><path d="M-1 0 a1 1 0 1 0 2 0 a1 1 0 1 0 -2 0z" id="SvgjsPath1846"></path><path d="M-3 0 a3 3 0 1 0 6 0 a3 3 0 1 0 -6 0z" id="SvgjsPath1848"></path><path d="M-5 0 a5 5 0 1 0 10 0 a5 5 0 1 0 -10 0z" id="SvgjsPath1847"></path><path d="M2 -2 L-2 2z" id="SvgjsPath1845"></path><path d="M6 -6 L-6 6z" id="SvgjsPath1844"></path><path d="M30 -30 L-30 30z" id="SvgjsPath1843"></path></defs><symbol id="SvgjsSymbol1849"><use xlink:href="#SvgjsPath1843" x="30" y="30" stroke="rgba(44, 108, 134, 1)" stroke-width="3"></use><use xlink:href="#SvgjsPath1843" x="30" y="90" stroke="rgba(7, 175, 165, 1)" stroke-width="3"></use><use xlink:href="#SvgjsPath1844" x="30" y="150" stroke="rgba(44, 108, 134, 1)"></use><use xlink:href="#SvgjsPath1845" x="30" y="210" stroke="rgba(7, 175, 165, 1)"></use><use xlink:href="#SvgjsPath1846" x="30" y="270" stroke="rgba(7, 175, 165, 1)"></use><use xlink:href="#SvgjsPath1844" x="30" y="330" stroke="rgba(44, 108, 134, 1)"></use><use xlink:href="#SvgjsPath1847" x="30" y="390" stroke="rgba(44, 108, 134, 1)"></use><use xlink:href="#SvgjsPath1844" x="30" y="450" stroke="rgba(44, 108, 134, 1)"></use><use xlink:href="#SvgjsPath1848" x="30" y="510" stroke="rgba(44, 108, 134, 1)"></use><use xlink:href="#SvgjsPath1846" x="30" y="570" stroke="rgba(7, 175, 165, 1)"></use><use xlink:href="#SvgjsPath1847" x="90" y="30" stroke="rgba(7, 175, 165, 1)"></use><use xlink:href="#SvgjsPath1848" x="90" y="90" stroke="rgba(7, 175, 165, 1)"></use><use xlink:href="#SvgjsPath1844" x="90" y="150" stroke="rgba(44, 108, 134, 1)"></use><use xlink:href="#SvgjsPath1847" x="90" y="210" stroke="rgba(7, 175, 165, 1)"></use><use xlink:href="#SvgjsPath1844" x="90" y="270" stroke="rgba(44, 108, 134, 1)"></use><use xlink:href="#SvgjsPath1844" x="90" y="330" stroke="rgba(7, 175, 165, 1)"></use><use xlink:href="#SvgjsPath1846" x="90" y="390" stroke="rgba(7, 175, 165, 1)"></use><use xlink:href="#SvgjsPath1847" x="90" y="450" stroke="rgba(44, 108, 134, 1)"></use><use xlink:href="#SvgjsPath1843" x="90" y="510" stroke="rgba(44, 108, 134, 1)" stroke-width="3"></use><use xlink:href="#SvgjsPath1847" x="90" y="570" stroke="rgba(7, 175, 165, 1)"></use><use xlink:href="#SvgjsPath1844" x="150" y="30" stroke="rgba(44, 108, 134, 1)"></use><use xlink:href="#SvgjsPath1846" x="150" y="90" stroke="rgba(7, 175, 165, 1)"></use><use xlink:href="#SvgjsPath1847" x="150" y="150" stroke="rgba(7, 175, 165, 1)"></use><use xlink:href="#SvgjsPath1844" x="150" y="210" stroke="rgba(44, 108, 134, 1)"></use><use xlink:href="#SvgjsPath1847" x="150" y="270" stroke="rgba(44, 108, 134, 1)"></use><use xlink:href="#SvgjsPath1847" x="150" y="330" stroke="rgba(7, 175, 165, 1)"></use><use xlink:href="#SvgjsPath1844" x="150" y="390" stroke="rgba(7, 175, 165, 1)"></use><use xlink:href="#SvgjsPath1847" x="150" y="450" stroke="rgba(44, 108, 134, 1)"></use><use xlink:href="#SvgjsPath1844" x="150" y="510" stroke="rgba(44, 108, 134, 1)"></use><use xlink:href="#SvgjsPath1844" x="150" y="570" stroke="rgba(7, 175, 165, 1)"></use><use xlink:href="#SvgjsPath1846" x="210" y="30" stroke="rgba(44, 108, 134, 1)"></use><use xlink:href="#SvgjsPath1845" x="210" y="90" stroke="rgba(7, 175, 165, 1)"></use><use xlink:href="#SvgjsPath1844" x="210" y="150" stroke="rgba(44, 108, 134, 1)"></use><use xlink:href="#SvgjsPath1844" x="210" y="210" stroke="rgba(7, 175, 165, 1)"></use><use xlink:href="#SvgjsPath1847" x="210" y="270" stroke="rgba(44, 108, 134, 1)"></use><use xlink:href="#SvgjsPath1846" x="210" y="330" stroke="rgba(44, 108, 134, 1)"></use><use xlink:href="#SvgjsPath1847" x="210" y="390" stroke="rgba(44, 108, 134, 1)"></use><use xlink:href="#SvgjsPath1847" x="210" y="450" stroke="rgba(7, 175, 165, 1)"></use><use xlink:href="#SvgjsPath1847" x="210" y="510" stroke="rgba(7, 175, 165, 1)"></use><use xlink:href="#SvgjsPath1844" x="210" y="570" stroke="rgba(44, 108, 134, 1)"></use><use xlink:href="#SvgjsPath1845" x="270" y="30" stroke="rgba(7, 175, 165, 1)"></use><use xlink:href="#SvgjsPath1846" x="270" y="90" stroke="rgba(7, 175, 165, 1)"></use><use xlink:href="#SvgjsPath1846" x="270" y="150" stroke="rgba(44, 108, 134, 1)"></use><use xlink:href="#SvgjsPath1848" x="270" y="210" stroke="rgba(44, 108, 134, 1)"></use><use xlink:href="#SvgjsPath1844" x="270" y="270" stroke="rgba(7, 175, 165, 1)"></use><use xlink:href="#SvgjsPath1847" x="270" y="330" stroke="rgba(7, 175, 165, 1)"></use><use xlink:href="#SvgjsPath1845" x="270" y="390" stroke="rgba(7, 175, 165, 1)"></use><use xlink:href="#SvgjsPath1847" x="270" y="450" stroke="rgba(7, 175, 165, 1)"></use><use xlink:href="#SvgjsPath1846" x="270" y="510" stroke="rgba(44, 108, 134, 1)"></use><use xlink:href="#SvgjsPath1847" x="270" y="570" stroke="rgba(44, 108, 134, 1)"></use><use xlink:href="#SvgjsPath1845" x="330" y="30" stroke="rgba(7, 175, 165, 1)"></use><use xlink:href="#SvgjsPath1845" x="330" y="90" stroke="rgba(44, 108, 134, 1)"></use><use xlink:href="#SvgjsPath1843" x="330" y="150" stroke="rgba(44, 108, 134, 1)" stroke-width="3"></use><use xlink:href="#SvgjsPath1846" x="330" y="210" stroke="rgba(44, 108, 134, 1)"></use><use xlink:href="#SvgjsPath1844" x="330" y="270" stroke="rgba(7, 175, 165, 1)"></use><use xlink:href="#SvgjsPath1844" x="330" y="330" stroke="rgba(44, 108, 134, 1)"></use><use xlink:href="#SvgjsPath1845" x="330" y="390" stroke="rgba(44, 108, 134, 1)"></use><use xlink:href="#SvgjsPath1845" x="330" y="450" stroke="rgba(7, 175, 165, 1)"></use><use xlink:href="#SvgjsPath1847" x="330" y="510" stroke="rgba(44, 108, 134, 1)"></use><use xlink:href="#SvgjsPath1847" x="330" y="570" stroke="rgba(44, 108, 134, 1)"></use><use xlink:href="#SvgjsPath1848" x="390" y="30" stroke="rgba(44, 108, 134, 1)"></use><use xlink:href="#SvgjsPath1844" x="390" y="90" stroke="rgba(44, 108, 134, 1)"></use><use xlink:href="#SvgjsPath1847" x="390" y="150" stroke="rgba(44, 108, 134, 1)"></use><use xlink:href="#SvgjsPath1844" x="390" y="210" stroke="rgba(7, 175, 165, 1)"></use><use xlink:href="#SvgjsPath1845" x="390" y="270" stroke="rgba(44, 108, 134, 1)"></use><use xlink:href="#SvgjsPath1847" x="390" y="330" stroke="rgba(44, 108, 134, 1)"></use><use xlink:href="#SvgjsPath1844" x="390" y="390" stroke="rgba(7, 175, 165, 1)"></use><use xlink:href="#SvgjsPath1847" x="390" y="450" stroke="rgba(44, 108, 134, 1)"></use><use xlink:href="#SvgjsPath1843" x="390" y="510" stroke="rgba(44, 108, 134, 1)" stroke-width="3"></use><use xlink:href="#SvgjsPath1848" x="390" y="570" stroke="rgba(7, 175, 165, 1)"></use><use xlink:href="#SvgjsPath1845" x="450" y="30" stroke="rgba(7, 175, 165, 1)"></use><use xlink:href="#SvgjsPath1844" x="450" y="90" stroke="rgba(7, 175, 165, 1)"></use><use xlink:href="#SvgjsPath1847" x="450" y="150" stroke="rgba(44, 108, 134, 1)"></use><use xlink:href="#SvgjsPath1848" x="450" y="210" stroke="rgba(44, 108, 134, 1)"></use><use xlink:href="#SvgjsPath1846" x="450" y="270" stroke="rgba(7, 175, 165, 1)"></use><use xlink:href="#SvgjsPath1847" x="450" y="330" stroke="rgba(7, 175, 165, 1)"></use><use xlink:href="#SvgjsPath1847" x="450" y="390" stroke="rgba(7, 175, 165, 1)"></use><use xlink:href="#SvgjsPath1847" x="450" y="450" stroke="rgba(7, 175, 165, 1)"></use><use xlink:href="#SvgjsPath1847" x="450" y="510" stroke="rgba(44, 108, 134, 1)"></use><use xlink:href="#SvgjsPath1843" x="450" y="570" stroke="rgba(44, 108, 134, 1)" stroke-width="3"></use><use xlink:href="#SvgjsPath1846" x="510" y="30" stroke="rgba(44, 108, 134, 1)"></use><use xlink:href="#SvgjsPath1846" x="510" y="90" stroke="rgba(7, 175, 165, 1)"></use><use xlink:href="#SvgjsPath1845" x="510" y="150" stroke="rgba(7, 175, 165, 1)"></use><use xlink:href="#SvgjsPath1843" x="510" y="210" stroke="rgba(7, 175, 165, 1)" stroke-width="3"></use><use xlink:href="#SvgjsPath1847" x="510" y="270" stroke="rgba(44, 108, 134, 1)"></use><use xlink:href="#SvgjsPath1844" x="510" y="330" stroke="rgba(44, 108, 134, 1)"></use><use xlink:href="#SvgjsPath1847" x="510" y="390" stroke="rgba(44, 108, 134, 1)"></use><use xlink:href="#SvgjsPath1847" x="510" y="450" stroke="rgba(7, 175, 165, 1)"></use><use xlink:href="#SvgjsPath1844" x="510" y="510" stroke="rgba(44, 108, 134, 1)"></use><use xlink:href="#SvgjsPath1844" x="510" y="570" stroke="rgba(44, 108, 134, 1)"></use><use xlink:href="#SvgjsPath1844" x="570" y="30" stroke="rgba(44, 108, 134, 1)"></use><use xlink:href="#SvgjsPath1845" x="570" y="90" stroke="rgba(44, 108, 134, 1)"></use><use xlink:href="#SvgjsPath1844" x="570" y="150" stroke="rgba(44, 108, 134, 1)"></use><use xlink:href="#SvgjsPath1844" x="570" y="210" stroke="rgba(44, 108, 134, 1)"></use><use xlink:href="#SvgjsPath1845" x="570" y="270" stroke="rgba(7, 175, 165, 1)"></use><use xlink:href="#SvgjsPath1848" x="570" y="330" stroke="rgba(7, 175, 165, 1)"></use><use xlink:href="#SvgjsPath1848" x="570" y="390" stroke="rgba(7, 175, 165, 1)"></use><use xlink:href="#SvgjsPath1844" x="570" y="450" stroke="rgba(7, 175, 165, 1)"></use><use xlink:href="#SvgjsPath1846" x="570" y="510" stroke="rgba(44, 108, 134, 1)"></use><use xlink:href="#SvgjsPath1847" x="570" y="570" stroke="rgba(44, 108, 134, 1)"></use><use xlink:href="#SvgjsPath1847" x="630" y="30" stroke="rgba(44, 108, 134, 1)"></use><use xlink:href="#SvgjsPath1845" x="630" y="90" stroke="rgba(44, 108, 134, 1)"></use><use xlink:href="#SvgjsPath1844" x="630" y="150" stroke="rgba(7, 175, 165, 1)"></use><use xlink:href="#SvgjsPath1845" x="630" y="210" stroke="rgba(7, 175, 165, 1)"></use><use xlink:href="#SvgjsPath1847" x="630" y="270" stroke="rgba(7, 175, 165, 1)"></use><use xlink:href="#SvgjsPath1844" x="630" y="330" stroke="rgba(44, 108, 134, 1)"></use><use xlink:href="#SvgjsPath1845" x="630" y="390" stroke="rgba(44, 108, 134, 1)"></use><use xlink:href="#SvgjsPath1844" x="630" y="450" stroke="rgba(7, 175, 165, 1)"></use><use xlink:href="#SvgjsPath1846" x="630" y="510" stroke="rgba(7, 175, 165, 1)"></use><use xlink:href="#SvgjsPath1847" x="630" y="570" stroke="rgba(44, 108, 134, 1)"></use><use xlink:href="#SvgjsPath1844" x="690" y="30" stroke="rgba(7, 175, 165, 1)"></use><use xlink:href="#SvgjsPath1848" x="690" y="90" stroke="rgba(44, 108, 134, 1)"></use><use xlink:href="#SvgjsPath1848" x="690" y="150" stroke="rgba(44, 108, 134, 1)"></use><use xlink:href="#SvgjsPath1848" x="690" y="210" stroke="rgba(44, 108, 134, 1)"></use><use xlink:href="#SvgjsPath1844" x="690" y="270" stroke="rgba(44, 108, 134, 1)"></use><use xlink:href="#SvgjsPath1847" x="690" y="330" stroke="rgba(44, 108, 134, 1)"></use><use xlink:href="#SvgjsPath1847" x="690" y="390" stroke="rgba(7, 175, 165, 1)"></use><use xlink:href="#SvgjsPath1844" x="690" y="450" stroke="rgba(44, 108, 134, 1)"></use><use xlink:href="#SvgjsPath1845" x="690" y="510" stroke="rgba(44, 108, 134, 1)"></use><use xlink:href="#SvgjsPath1846" x="690" y="570" stroke="rgba(7, 175, 165, 1)"></use></symbol></svg>